<svg xmlns="http://www.w3.org/2000/svg" width="15.21" height="16.74" viewBox="0 0 15.21 16.74"><path d="M13.806-8.046h2.3v1.98h-2.3V2.592H11.52v-16.74h2.286ZM.9-2.664q1.35-.81,2.3-1.44A18.308,18.308,0,0,0,4.8-5.265a6.265,6.265,0,0,0,1-1.008,4.03,4.03,0,0,0,.549-.963,3.652,3.652,0,0,0,.234-1.026q.045-.54.045-1.206v-1.206H1.206v-1.962h7.7V-9.36a13.55,13.55,0,0,1-.09,1.647,5.327,5.327,0,0,1-.351,1.368,5.285,5.285,0,0,1-.72,1.233A8.308,8.308,0,0,1,6.534-3.879,20.841,20.841,0,0,1,4.689-2.511Q3.6-1.782,2.106-.864Z" transform="translate(-0.9 14.148)"/></svg>