<svg xmlns="http://www.w3.org/2000/svg" width="11.83" height="12.908" viewBox="0 0 11.83 12.908"><path d="M12.544-4.97H10.556V1.96H9.17V-10.948h1.386v4.774h1.988ZM.714-1.988q1.12-.658,1.9-1.169A15.287,15.287,0,0,0,3.9-4.088,5.413,5.413,0,0,0,4.7-4.879a2.752,2.752,0,0,0,.434-.749,2.976,2.976,0,0,0,.175-.777q.035-.4.035-.9V-8.554H.966v-1.19H6.72v2.45q0,.644-.035,1.148a3.611,3.611,0,0,1-.2.959,3.4,3.4,0,0,1-.49.9,5.867,5.867,0,0,1-.917.938,17.647,17.647,0,0,1-1.477,1.1q-.889.6-2.163,1.372Z" transform="translate(-0.714 10.948)"/></svg>